{"title":"Sringara Velan 2013 Malayalam DVDRip Mp4 x264 -Extreme","uid":9370327,"size":1038919852,"categoryP":"video","categoryS":"movies","magnet":"?xt=urn:btih:d87d628b953c6f8a8f9ec3e70bc16f3aad9d5f74&amp;dn=Sringara+Velan+2013+Malayalam+DVDRip+Mp4+x264+-Extreme&amp;tr=udp%3A%2F%2Ftracker.openbittorrent.com%3A80&amp;tr=udp%3A%2F%2Fopen.demonii.com%3A1337&amp;tr=udp%3A%2F%2Ftracker.coppersurfer.tk%3A6969&amp;tr=udp%3A%2F%2Fexodus.desync.com%3A6969","seeders":0,"leechers":0,"uploader":"NewSky005","files":8,"time":1387511808,"description":"ScreenShots &lt;a href=&quot;\nhttp://i.imgur.com/Xlh179O.png&quot; rel=&quot;nofollow&quot; target=&quot;_NEW&quot;&gt;\nhttp://i.imgur.com/Xlh179O.png&lt;/a&gt; &lt;a href=&quot;\nhttp://i.imgur.com/CrBF9hW.png&quot; rel=&quot;nofollow&quot; target=&quot;_NEW&quot;&gt;\nhttp://i.imgur.com/CrBF9hW.png&lt;/a&gt; &lt;a href=&quot;\nhttp://i.imgur.com/VA7HRyT.png&quot; rel=&quot;nofollow&quot; target=&quot;_NEW&quot;&gt;\nhttp://i.imgur.com/VA7HRyT.png&lt;/a&gt; &lt;a href=&quot;\nhttp://i.imgur.com/zxj2qk0.png&quot; rel=&quot;nofollow&quot; target=&quot;_NEW&quot;&gt;\nhttp://i.imgur.com/zxj2qk0.png&lt;/a&gt; &lt;a href=&quot;\nhttp://i.imgur.com/czBF2ur.png&quot; rel=&quot;nofollow&quot; target=&quot;_NEW&quot;&gt;\nhttp://i.imgur.com/czBF2ur.png&lt;/a&gt; &lt;a href=&quot;\nhttp://i.imgur.com/Er9sB4i.png&quot; rel=&quot;nofollow&quot; target=&quot;_NEW&quot;&gt;\nhttp://i.imgur.com/Er9sB4i.png&lt;/a&gt; &lt;a href=&quot;\nhttp://i.imgur.com/pQuryCr.png&quot; rel=&quot;nofollow&quot; target=&quot;_NEW&quot;&gt;\nhttp://i.imgur.com/pQuryCr.png&lt;/a&gt;\nSringara Velan Video Info\n\nFormat : MPEG-4\nFormat profile : Base Media / Version 2\nCodec ID : mp42\nFile size : 988 MiB\nDuration : 2h 47mn\nOverall bit rate mode : Variable\nOverall bit rate : 825 Kbps\nEncoded date : UTC 2013-12-19 16:27:07\nTagged date : UTC 2013-12-19 16:51:29\nWriting application : HandBrake 0.9.8 2012071700\n\nVideo\nID : 1\nFormat : AVC\nFormat/Info : Advanced Video Codec\nFormat profile : &lt;a class=&quot;__cf_email__&quot; href=&quot;/cdn-cgi/l/email-protection&quot; data-cfemail=&quot;581539313618146b7668&quot;&gt;[email&amp;#160;protected]&lt;/a&gt;&lt;script data-cfhash='f9e31' type=&quot;text/javascript&quot;&gt;\n/* &lt;![CDATA[ */!function(){try{var t=&quot;currentScript&quot;in document?document.currentScript:function(){for(var t=document.getElementsByTagName(&quot;script&quot;),e=t.length;e--;)if(t[e].getAttribute(&quot;data-cfhash&quot;))return t[e]}();if(t&amp;&amp;t.previousSibling){var e,r,n,i,c=t.previousSibling,a=c.getAttribute(&quot;data-cfemail&quot;);if(a){for(e=&quot;&quot;,r=parseInt(a.substr(0,2),16),n=2;a.length-n;n+=2)i=parseInt(a.substr(n,2),16)^r,e+=String.fromCharCode(i);e=document.createTextNode(e),c.parentNode.replaceChild(e,c)}t.parentNode.removeChild(t);}}catch(u){}}()/* ]]&gt; */&lt;/script&gt;\nFormat settings, CABAC : Yes\nFormat settings, ReFrames : 4 frames\nCodec ID : avc1\nCodec ID/Info : Advanced Video Coding\nDuration : 2h 47mn\nBit rate mode : Variable\nBit rate : 659 Kbps\nWidth : 720 pixels\nHeight : 368 pixels\nDisplay aspect ratio : 2.35:1\nOriginal display aspect ratio : 2.35:1\nFrame rate mode : Variable\nFrame rate : 23.952 fps\nMinimum frame rate : 0.200 fps\nMaximum frame rate : 29.970 fps\nColor space : YUV\nChroma subsampling : 4:2:0\nBit depth : 8 bits\nScan type : Progressive\nBits/(Pixel*Frame) : 0.104\nStream size : 789 MiB (80%)\nWriting library : x264 core 120\nEncoding settings : cabac=1 / ref=1 / deblock=1:0:0 / analyse=0x1:0x111 / me=hex / subme=2 / psy=1 / psy_rd=1.00:0.00 / mixed_ref=0 / me_range=16 / chroma_me=1 / trellis=0 / 8x8dct=0 / cqm=0 / deadzone=21,11 / fast_pskip=1 / chroma_qp_offset=0 / threads=6 / sliced_threads=0 / nr=0 / decimate=1 / interlaced=0 / bluray_compat=0 / constrained_intra=0 / bframes=3 / b_pyramid=2 / b_adapt=1 / b_bias=0 / direct=1 / weightb=1 / open_gop=0 / weightp=1 / keyint=240 / keyint_min=24 / scenecut=40 / intra_refresh=0 / rc_lookahead=10 / rc=crf / mbtree=1 / crf=23.5 / qcomp=0.60 / qpmin=3 / qpmax=69 / qpstep=4 / ip_ratio=1.40 / aq=1:1.00\nEncoded date : UTC 2013-12-19 16:27:07\nTagged date : UTC 2013-12-19 16:51:29\nColor primaries : BT.601 NTSC\nTransfer characteristics : BT.709\nMatrix coefficients : BT.601\n\nAudio\nID : 2\nFormat : AAC\nFormat/Info : Advanced Audio Codec\nFormat profile : LC\nCodec ID : 40\nDuration : 2h 47mn\nBit rate mode : Variable\nBit rate : 160 Kbps\nMaximum bit rate : 369 Kbps\nChannel(s) : 2 channels\nChannel positions : Front: L R\nSampling rate : 48.0 KHz\nCompression mode : Lossy\nDelay relative to video : 5s 55ms\nStream size : 192 MiB (19%)\nLanguage : Malayalam\nEncoded date : UTC 2013-12-19 16:27:07\nTagged date : UTC 2013-12-19 16:51:28\n\n\nFor New Malayalam Mp3 Download Visit FlipMp3.Com ","torrent":{"xt":"urn:btih:d87d628b953c6f8a8f9ec3e70bc16f3aad9d5f74","amp;dn":"Sringara+Velan+2013+Malayalam+DVDRip+Mp4+x264+-Extreme","amp;tr":["udp%3A%2F%2Ftracker.openbittorrent.com%3A80","udp%3A%2F%2Fopen.demonii.com%3A1337","udp%3A%2F%2Ftracker.coppersurfer.tk%3A6969","udp%3A%2F%2Fexodus.desync.com%3A6969"],"infoHash":"d87d628b953c6f8a8f9ec3e70bc16f3aad9d5f74","infoHashBuffer":{"type":"Buffer","data":[216,125,98,139,149,60,111,138,143,158,195,231,11,193,111,58,173,157,95,116]},"announce":[],"urlList":[]}}